<svg width="367" height="406" viewBox="0 0 367 406" fill="none" xmlns="http://www.w3.org/2000/svg">
<path d="M198 335.5V193.5L266.5 234.5L330 170V298L289.5 308.5V264.5L266.5 287.5L245.5 275V322.5L198 335.5Z" stroke="#929292" stroke-width="12"/>
<path d="M28 285.5V249L137 217V252.5L102 264V357L60.5 364.5V275L28 285.5Z" stroke="#929292" stroke-width="12"/>
<path d="M101 394V261.5L148 251V293L220.5 242V364L177.5 378V339L101 394Z" fill="white" stroke="#929292" stroke-width="12"/>
<path d="M96.5 216.504C66.3333 207.004 6 177.904 6 137.504C6 87.0035 6 50.5035 69.5 18.5035C133 -13.4965 240 26.5035 261 22.5035C282 18.5035 325.5 24.5035 355 12.0035C384.5 -0.496461 290 73.5035 223.5 69.5035C157 65.5035 317.5 85.5035 336 69.5035C354.5 53.5035 319 126.004 223.5 126.004C134.737 126.004 281.815 141.985 307.826 134.605C312.341 130.749 313.113 129.278 311.5 132.504C311.077 133.35 309.8 134.045 307.826 134.605C295.543 145.095 255.556 173.235 160.5 172.504C56.5 171.704 74.5 201.504 96.5 216.504Z" fill="white"/>
<path d="M96.5 216.504C66.3333 207.004 6 177.904 6 137.504C6 87.0035 6 50.5035 69.5 18.5035C133 -13.4965 240 26.5035 261 22.5035C282 18.5035 325.5 24.5035 355 12.0035C384.5 -0.496461 290 73.5035 223.5 69.5035C157 65.5035 317.5 85.5035 336 69.5035C354.5 53.5035 319 126.004 223.5 126.004C128 126.004 305.5 144.504 311.5 132.504C317.5 120.504 290.5 173.504 160.5 172.504C56.5 171.704 74.5 201.504 96.5 216.504Z" stroke="#929292" stroke-width="12"/>
</svg>
