<svg width="323" height="110" viewBox="0 0 323 110" fill="none" xmlns="http://www.w3.org/2000/svg">
<g clip-path="url(#clip0_240_15)">
<path d="M0 4.19124C8.43291 4.19124 12.0034 10.0856 15.7932 16.4117L46.8312 69.783C48.2954 72.4439 49.7362 75.6618 49.697 78.6758C49.5798 86.5243 39.4163 89.397 33.3324 89.6641C28.9167 89.8153 24.5277 88.9199 20.5225 87.0502L18.0482 90.2605C19.4889 96.414 25.1735 103.894 32.9879 103.831C46.5574 103.737 53.6826 91.2728 59.1324 81.1638L69.233 62.3975L39.9331 11.9929C37.224 7.4877 41.6715 4.20692 46.4007 4.14415L47.4497 0H1.08054L0 4.19124Z" fill="url(#paint0_linear_240_15)"/>
<path d="M249.253 2.65287C250.89 3.87533 252.877 4.53564 254.918 4.53564C256.959 4.53564 258.946 3.87533 260.583 2.65287L258.782 0C257.67 0.843556 256.313 1.30001 254.918 1.30001C253.523 1.30001 252.167 0.843556 251.054 0L249.253 2.65287ZM263.739 28.3182V6.68711H259.346L250.451 21.4349V6.68711H246.098V28.3182H250.49L259.338 13.6411V28.3182H263.731H263.739Z" fill="#292929"/>
<path d="M117.145 21.6075C117.145 23.4912 115.266 24.6371 113.559 24.6371C112.171 24.602 110.819 24.1926 109.644 23.452V11.7731C110.828 10.7932 112.306 10.2404 113.841 10.2033C114.265 10.1865 114.689 10.2548 115.087 10.4043C115.485 10.5538 115.849 10.7814 116.159 11.0738C116.468 11.3662 116.716 11.7174 116.888 12.1071C117.06 12.4967 117.152 12.9168 117.161 13.3428V21.6075H117.145ZM121.671 21.1366V13.6724C121.671 8.96321 119.165 6.29464 114.522 6.29464C112.768 6.29464 109.753 7.00101 108.524 8.00566C108.192 7.23806 107.586 6.62234 106.825 6.27893L104.061 8.8376C105.11 9.54401 105.142 10.9254 105.142 11.5376V35.3193H109.62V27.7217C111.064 28.3188 112.608 28.6332 114.17 28.6478C118.374 28.6557 121.671 26.0106 121.671 21.1366Z" fill="#292929"/>
<path d="M135.953 23.3421C135.401 23.9688 134.695 24.4388 133.904 24.7047C133.114 24.9706 132.268 25.0231 131.451 24.8569C130.858 24.7171 130.328 24.3852 129.943 23.9126C129.558 23.44 129.339 22.8532 129.321 22.2432C129.292 21.7984 129.358 21.3526 129.515 20.9354C129.672 20.5182 129.915 20.1392 130.229 19.8236C130.543 19.5081 130.921 19.2632 131.336 19.1052C131.752 18.9472 132.197 18.8799 132.641 18.9075H135.953V23.3499V23.3421ZM162.082 28.3182V6.63996H147.298V20.0613C147.298 22.7927 145.599 25.0688 143.227 25.1316C142.123 25.1316 140.44 24.4252 140.44 22.777V13.6253C140.44 9.14373 138.091 6.29462 133.032 6.29462C130.232 6.24162 127.525 7.29951 125.5 9.23792L127.849 12.1498C129.135 10.953 130.795 10.2402 132.547 10.1327C134.035 10.1327 135.914 10.7919 135.914 12.8091V15.1166H132.242C126.988 15.1166 124.787 18.4602 124.787 21.9764C124.787 25.3592 126.635 28.6557 131.936 28.6557C133.795 28.5792 135.566 27.8419 136.932 26.5757C137.773 27.3777 138.775 27.9907 139.872 28.3737C140.968 28.7567 142.133 28.901 143.29 28.7969C148.387 28.64 151.66 25.8851 151.527 19.92V10.3446H157.689V28.3182H162.082Z" fill="#292929"/>
<path d="M221.378 28.3339L213.352 16.8905L220.853 6.68711H215.748L210.134 15.1716H207.378V6.64001H202.978V28.3339H207.292L207.331 18.8762H210.064L216.257 28.3339H221.378Z" fill="#292929"/>
<path d="M171.141 24.6136H174.907C176.888 24.6136 177.671 22.4395 177.671 20.9875C177.671 19.5355 176.841 17.7067 174.836 17.7067H171.133V24.6136H171.141ZM166.662 28.3653V6.64001H171.141V14.0021H174.273C179.526 14.0021 182.314 17.2201 182.267 20.9168C182.22 24.6136 179.621 28.3653 174.328 28.3653H166.615H166.662Z" fill="#292929"/>
<path d="M200.12 25.9008L198.28 22.6357C195.735 24.433 194.208 24.9903 192.932 24.9903C191.138 24.9903 189.345 24.0641 189.345 22.1804V13.7274C189.345 11.7966 191.131 10.4309 193.19 10.4309C194.891 10.567 196.476 11.3539 197.614 12.6285L199.963 9.66957C199.098 8.57857 197.989 7.70775 196.725 7.12808C195.46 6.54842 194.078 6.27627 192.689 6.33385C188.265 6.33385 184.859 9.05738 184.859 13.7509V21.8822C184.859 26.4894 188.414 28.6557 192.791 28.6557C195.495 28.6396 198.105 27.6572 200.151 25.885" fill="#292929"/>
<path d="M241.556 28.3183V6.68713H237.163L228.269 21.4349V6.68713H223.923V28.3183H228.269H228.315L237.163 13.6411V28.3183H241.556Z" fill="#292929"/>
<path d="M103.943 0H98.932L95.0564 12.8955C94.9859 13.1309 94.8918 13.39 94.8371 13.6804C94.7822 13.9708 94.7275 14.1513 94.7038 14.3318C94.6804 14.5123 94.6571 14.6065 94.6571 14.6144C94.6571 14.6222 94.6571 14.5202 94.61 14.3475C94.5629 14.1748 94.5317 13.9629 94.477 13.7117C94.4272 13.4594 94.3537 13.2124 94.2575 12.974L88.5338 0H83.4287L92.5899 20.1791L92.0105 21.639C91.2745 23.2558 89.3482 25.0374 85.8873 25.1866L86.4354 28.6871C91.5092 28.797 94.8526 26.5366 96.1525 22.7535L103.943 0Z" fill="#292929"/>
<path d="M308.056 39.3302C309.693 40.5526 311.68 41.2129 313.721 41.2129C315.763 41.2129 317.749 40.5526 319.386 39.3302L317.585 36.6771C316.473 37.5207 315.116 37.9772 313.721 37.9772C312.326 37.9772 310.969 37.5207 309.857 36.6771L308.056 39.3302ZM322.542 64.9952V43.3644H318.149L309.285 58.0807V43.3644H304.932V64.9952H309.285L318.134 50.3182V64.9952H322.526H322.542Z" fill="#292929"/>
<path d="M300.359 43.3644H295.967V64.9952H300.359V43.3644Z" fill="#292929"/>
<path d="M282.382 61.3377H286.148C288.129 61.3377 288.912 59.1638 288.912 57.7118C288.912 56.2598 288.082 54.4311 286.078 54.4311H282.374V61.3377H282.382ZM277.903 65.0894V43.3644H282.382V50.7265H285.514C290.768 50.7265 293.555 53.9443 293.508 57.641C293.461 61.3377 290.862 65.0894 285.568 65.0894H277.856H277.903Z" fill="#292929"/>
<path d="M104.28 58.2925C104.277 58.7111 104.188 59.1243 104.019 59.5073C103.85 59.8899 103.605 60.234 103.298 60.5179C102.992 60.8018 102.63 61.0198 102.236 61.158C101.842 61.2965 101.424 61.3522 101.007 61.3223C100.507 61.3735 100.002 61.291 99.5437 61.0827C99.0857 60.8744 98.6909 60.5481 98.3998 60.137V48.882V48.4189C98.7482 47.9968 99.1864 47.6579 99.6822 47.4269C100.178 47.1962 100.719 47.079 101.266 47.0845C101.672 47.0745 102.077 47.1501 102.453 47.3066C102.829 47.463 103.168 47.6967 103.448 47.9923C103.729 48.2883 103.944 48.6396 104.08 49.0239C104.217 49.4086 104.272 49.8173 104.241 50.224V58.2925H104.28ZM93.9603 48.2385V48.5052V60.137C93.6692 60.5481 93.2744 60.8744 92.8164 61.0827C92.358 61.291 91.8532 61.3735 91.3529 61.3223C90.9389 61.3477 90.5241 61.2886 90.1338 61.1483C89.7434 61.0077 89.3857 60.7895 89.0823 60.5059C88.7789 60.2223 88.5366 59.8799 88.3696 59.4994C88.2026 59.1188 88.1147 58.7084 88.1112 58.2925V50.0201C88.0803 49.6124 88.1353 49.203 88.272 48.818C88.4091 48.433 88.6253 48.0814 88.9064 47.7854C89.1878 47.4894 89.5276 47.256 89.9046 47.1003C90.2815 46.9442 90.687 46.8693 91.0945 46.8806C91.6429 46.8772 92.1855 46.9979 92.6813 47.2326C93.1775 47.4678 93.6143 47.8115 93.9603 48.2385ZM108.837 57.8294V50.3573C108.837 45.6483 106.676 42.9798 102.033 42.9798C100.783 42.9805 99.5537 43.3019 98.4623 43.9137V39.8324H93.9603V43.9137C92.869 43.3026 91.6398 42.9811 90.3898 42.9798C85.7465 42.9798 83.5854 45.6562 83.5854 50.3573V57.8215C83.5854 62.6956 86.5375 65.3407 90.742 65.3407C91.8766 65.3081 92.9841 64.9866 93.9603 64.4067V71.973H98.439V64.4067C99.4162 64.9836 100.523 65.3022 101.657 65.3328C105.862 65.3407 108.837 62.6956 108.837 57.8215V57.8294Z" fill="#292929"/>
<path d="M123.894 49.4941V52.186H117.207V49.8317C117.207 47.9009 118.867 46.8019 120.794 46.8019C121.976 46.8019 123.925 47.5867 123.925 49.5254L123.894 49.4941ZM128.929 62.5071L127.042 59.1088C125.382 60.5777 123.258 61.4116 121.044 61.4635C118.899 61.4635 117.239 60.2783 117.239 57.9473V55.8906H128.412V50.6165C128.412 45.1223 124.943 43.0189 120.778 43.0189C116.002 43.0189 112.666 45.4754 112.666 50.8678V58.0807C112.666 62.9076 115.798 65.3328 120.645 65.3328C124.207 65.3407 126.353 64.187 128.897 62.4759L128.929 62.5071Z" fill="#292929"/>
<path d="M137.667 61.3456C138.771 60.137 139.46 57.8294 139.406 55.4747V47.0924H145.568V61.3456H137.667ZM149.96 61.3456V43.3719H135.138V55.3259C135.138 58.0494 133.572 61.283 131.168 61.3456H130.761V70.301H135.029V65.0581H148.034V70.3089H152.419V61.3456H149.96Z" fill="#292929"/>
<path d="M273.362 64.9952V43.3644H268.961V51.8172H260.074V43.3644H255.721V64.9952H260.074V55.5218H268.961V64.9952H273.362Z" fill="#292929"/>
<path d="M187.286 58.3316C187.286 60.2154 185.407 61.3614 183.7 61.3614C182.313 61.3264 180.96 60.917 179.785 60.1762V48.5285C180.969 47.5492 182.447 46.9968 183.982 46.959C184.407 46.9421 184.831 47.0105 185.229 47.1601C185.626 47.3096 185.991 47.5372 186.3 47.8294C186.609 48.1219 186.857 48.4732 187.029 48.8627C187.201 49.2525 187.294 49.6725 187.302 50.0985V58.3316H187.286ZM191.812 57.8607V50.3968C191.812 45.6875 189.306 43.0189 184.663 43.0189C182.909 43.0189 179.895 43.7253 178.665 44.7298C178.325 43.9728 177.717 43.3689 176.958 43.0347L174.194 45.5933C175.244 46.2997 175.283 47.6809 175.283 48.2931V72.0122H179.762V64.4538C181.205 65.0509 182.749 65.3651 184.311 65.3799C188.516 65.3799 191.836 62.7426 191.836 57.8686L191.812 57.8607Z" fill="#292929"/>
<path d="M206.094 60.0741C204.442 62.2171 199.524 62.4917 199.462 58.9755C199.432 58.5286 199.498 58.0804 199.655 57.661C199.812 57.2416 200.056 56.8611 200.372 56.5442C200.688 56.2276 201.068 55.9821 201.486 55.825C201.905 55.6676 202.352 55.6016 202.797 55.6318H206.11V60.0741H206.094ZM232.254 65.0502V43.3641H217.44V56.7934C217.44 59.5248 215.74 61.8008 213.368 61.8637C212.264 61.8637 210.581 61.1573 210.581 59.509V50.3573C210.581 45.8759 208.232 43.0269 203.173 43.0269C200.374 42.9746 197.667 44.0323 195.641 45.9701L197.99 48.882C199.276 47.685 200.936 46.9724 202.688 46.8648C204.176 46.8648 206.055 47.5242 206.055 49.5413V51.8489H202.383C197.128 51.8489 194.928 55.1922 194.928 58.7084C194.928 62.0912 196.776 65.3878 202.077 65.3878C203.936 65.3115 205.707 64.5742 207.073 63.3078C207.914 64.1094 208.917 64.722 210.013 65.1052C211.109 65.4882 212.274 65.6326 213.431 65.5291C218.528 65.3641 221.801 62.6093 221.668 56.6521V47.0924H227.854V65.0661H232.239L232.254 65.0502Z" fill="#292929"/>
<path d="M241.282 61.3377H245.079C247.06 61.3377 247.843 59.1638 247.843 57.7118C247.843 56.2598 247.013 54.4311 245.009 54.4311H241.305V61.3377H241.282ZM236.803 65.0894V43.3644H241.282V50.7265H244.414C249.675 50.7265 252.455 53.9443 252.416 57.641C252.377 61.3377 249.77 65.0894 244.477 65.0894H236.764H236.803Z" fill="#292929"/>
<path d="M166.49 49.4941V52.186H159.803V49.8317C159.803 47.9009 161.463 46.8019 163.389 46.8019C164.571 46.8019 166.521 47.5867 166.521 49.5254L166.49 49.4941ZM171.477 62.4759L169.59 59.0775C167.93 60.546 165.806 61.38 163.593 61.4319C161.447 61.4319 159.787 60.247 159.787 57.9157V55.8906H171V50.6165C171 45.1223 167.531 43.0189 163.373 43.0189C158.597 43.0189 155.261 45.4754 155.261 50.8678V58.0807C155.261 62.9076 158.393 65.3328 163.24 65.3328C166.779 65.3407 168.956 64.187 171.477 62.4759Z" fill="#292929"/>
<path d="M102.088 80.1041H97.2095L92.7937 96.9162C92.781 95.8726 92.6174 94.8362 92.3082 93.8397L88.5497 80.0966L83.5854 80.1433C83.5854 80.1433 89.372 98.4703 90.7265 101.68C90.0609 104.514 88.5184 106.39 85.2455 106.711L85.6681 110C90.6323 110 93.4514 107.316 94.4771 104.012L102.088 80.1041Z" fill="#292929"/>
<path d="M122.532 101.735V80.104H118.14V88.5493H109.245V80.104H104.899V101.735H109.245V92.2618H118.14V101.735H122.532Z" fill="#292929"/>
<path d="M144.706 101.735V80.104H140.314L131.419 94.8519V80.104H127.073V101.735H131.419H131.466L140.314 87.0581V101.735H144.706Z" fill="#292929"/>
<path d="M153.735 97.9756H157.501C159.482 97.9756 160.265 96.406 160.265 94.9382C160.29 94.5635 160.233 94.1878 160.097 93.8378C159.962 93.4876 159.752 93.1713 159.482 92.9108C159.212 92.6505 158.889 92.4529 158.534 92.3312C158.18 92.2095 157.803 92.1672 157.43 92.2068H153.727V97.968L153.735 97.9756ZM153.735 83.8481V88.518H156.961C157.269 88.5493 157.581 88.5108 157.874 88.4052C158.166 88.3 158.431 88.1306 158.649 87.9095C158.868 87.6882 159.034 87.4207 159.136 87.1268C159.238 86.8329 159.273 86.5198 159.239 86.2104C159.255 85.9089 159.21 85.6074 159.106 85.3239C159.003 85.0403 158.843 84.7807 158.637 84.5607C158.43 84.3407 158.182 84.1647 157.906 84.0437C157.63 83.9224 157.332 83.8584 157.031 83.8557H153.735V83.8481ZM149.256 101.72V80.104H156.961C162.254 80.104 163.914 83.3377 163.835 85.8103C163.85 86.7078 163.611 87.5912 163.145 88.3581C162.68 89.1247 162.007 89.7438 161.205 90.1425C162.281 90.5021 163.215 91.1958 163.872 92.1225C164.53 93.0496 164.876 94.162 164.861 95.2995C164.861 98.4389 162.559 101.735 157.258 101.735H149.248L149.256 101.72Z" fill="#292929"/>
<path d="M247.421 80.104V83.8086H252.87V101.782H253.152H257.255H257.537V83.8086H262.995V80.104H247.421Z" fill="#292929"/>
<path d="M283.259 80.104V83.8086H288.716L288.709 101.782H288.998H293.101H293.383V83.8086H298.833V80.104H283.259Z" fill="#292929"/>
<path d="M244.163 101.735V80.104H239.771L230.876 94.8519V80.104H226.53V101.735H230.876H230.923L239.771 87.0581V101.735H244.163Z" fill="#292929"/>
<path d="M199.971 95.0246C199.971 96.9083 198.092 98.0544 196.385 98.0544C194.997 98.019 193.645 97.6096 192.47 96.8691V85.2136C193.654 84.2339 195.132 83.6812 196.667 83.644C197.092 83.6272 197.515 83.6956 197.913 83.8451C198.312 83.9943 198.676 84.2222 198.985 84.5144C199.294 84.8069 199.542 85.1583 199.714 85.5477C199.886 85.9372 199.979 86.3576 199.987 86.7835V95.0562L199.971 95.0246ZM204.497 94.5536V87.1211C204.497 82.4117 201.991 79.7432 197.348 79.7432C195.594 79.7432 192.58 80.4496 191.35 81.4544C191.012 80.6936 190.404 80.0866 189.643 79.7511L186.879 82.3096C187.928 83.016 187.96 84.3975 187.96 85.0098V108.705H192.446V101.147C193.89 101.744 195.434 102.058 196.996 102.073C201.232 102.034 204.497 99.4277 204.497 94.5536Z" fill="#292929"/>
<path d="M223.664 99.2551L221.824 95.9902C219.279 97.7876 217.753 98.3448 216.484 98.3448C214.691 98.3448 212.898 97.4184 212.898 95.535V87.1211C212.898 85.1902 214.691 83.8245 216.75 83.8245C218.452 83.9613 220.035 84.7482 221.174 86.0221L223.523 83.0631C222.658 81.9724 221.549 81.1013 220.285 80.5217C219.021 79.9422 217.638 79.6699 216.249 79.7277C211.825 79.7277 208.419 82.4509 208.419 87.1444V95.2679C208.419 99.8752 211.974 102.042 216.359 102.042C219.063 102.025 221.673 101.043 223.719 99.2709" fill="#292929"/>
<path d="M276.501 86.1792V88.8711H269.815V86.5168C269.815 84.5859 271.475 83.4869 273.401 83.4869C274.583 83.4869 276.533 84.2717 276.533 86.2105L276.501 86.1792ZM281.536 99.1922L279.61 95.7547C277.95 97.2232 275.826 98.0571 273.612 98.109C271.467 98.109 269.807 96.9241 269.807 94.5928V92.6152H281.019V87.3407C281.019 81.8466 277.551 79.7432 273.385 79.7432C268.609 79.7432 265.273 82.1999 265.273 87.592V94.797C265.273 99.6239 268.405 102.049 273.252 102.049C276.815 102.034 278.96 100.872 281.505 99.1609L281.536 99.1922Z" fill="#292929"/>
<path d="M179.308 86.1792V88.8711H172.621V86.5168C172.621 84.5859 174.281 83.4869 176.207 83.4869C177.389 83.4869 179.339 84.2717 179.339 86.2105L179.308 86.1792ZM184.342 99.1922L182.377 95.7547C180.717 97.2232 178.593 98.0571 176.379 98.109C174.234 98.109 172.574 96.9241 172.574 94.5928V92.6152H183.786V87.3407C183.786 81.8466 180.318 79.7432 176.16 79.7432C171.383 79.7432 168.048 82.1999 168.048 87.592V94.797C168.048 99.6239 171.18 102.049 176.027 102.049C179.582 102.034 181.727 100.872 184.272 99.1609L184.342 99.1922Z" fill="#292929"/>
</g>
<defs>
<linearGradient id="paint0_linear_240_15" x1="34.6167" y1="0" x2="34.6167" y2="103.839" gradientUnits="userSpaceOnUse">
<stop stop-color="#EE6222"/>
<stop offset="0.48" stop-color="#E31E24"/>
<stop offset="1" stop-color="#FFED00"/>
</linearGradient>
<clipPath id="clip0_240_15">
<rect width="323" height="110" fill="white"/>
</clipPath>
</defs>
</svg>
