<svg width="323" height="104" viewBox="0 0 323 104" fill="none" xmlns="http://www.w3.org/2000/svg">
<g clip-path="url(#clip0_240_15)">
<path d="M0 3.96263C8.43291 3.96263 12.0034 9.5355 15.7932 15.5165L46.8312 65.9766C48.2954 68.4925 49.7362 71.5348 49.697 74.3844C49.5798 81.8048 39.4163 84.5208 33.3324 84.7733C28.9167 84.9163 24.5277 84.0697 20.5225 82.302L18.0482 85.3372C19.4889 91.155 25.1735 98.2267 32.9879 98.1676C46.5574 98.0785 53.6826 86.2943 59.1324 76.7367L69.233 58.994L39.9331 11.3387C37.224 7.07928 41.6715 3.97745 46.4007 3.9181L47.4497 0H1.08054L0 3.96263Z" fill="#787878"/>
<path d="M249.253 2.50817C250.89 3.66395 252.877 4.28825 254.918 4.28825C256.959 4.28825 258.946 3.66395 260.583 2.50817L258.782 0C257.67 0.797543 256.313 1.2291 254.918 1.2291C253.523 1.2291 252.167 0.797543 251.054 0L249.253 2.50817ZM263.739 26.7736V6.32236H259.346L250.451 20.2657V6.32236H246.098V26.7736H250.49L259.338 12.897V26.7736H263.731H263.739Z" fill="#787878"/>
<path d="M117.145 20.4289C117.145 22.2099 115.266 23.2933 113.559 23.2933C112.171 23.2601 110.819 22.873 109.644 22.1728V11.1309C110.828 10.2045 112.306 9.68183 113.841 9.64676C114.265 9.6309 114.689 9.69551 115.087 9.83685C115.485 9.97816 115.849 10.1933 116.159 10.4698C116.468 10.7462 116.716 11.0783 116.888 11.4467C117.06 11.8151 117.152 12.2122 117.161 12.615V20.4289H117.145ZM121.671 19.9837V12.9267C121.671 8.47432 119.165 5.95131 114.522 5.95131C112.768 5.95131 109.753 6.61916 108.524 7.569C108.192 6.84328 107.586 6.26114 106.825 5.93646L104.061 8.35557C105.11 9.02344 105.142 10.3295 105.142 10.9083V33.3928H109.62V26.2096C111.064 26.7742 112.608 27.0714 114.17 27.0852C118.374 27.0927 121.671 24.5919 121.671 19.9837Z" fill="#787878"/>
<path d="M135.953 22.0689C135.401 22.6615 134.695 23.1058 133.904 23.3572C133.114 23.6086 132.268 23.6583 131.451 23.5011C130.858 23.369 130.328 23.0551 129.943 22.6083C129.558 22.1615 129.339 21.6067 129.321 21.03C129.292 20.6095 129.358 20.1879 129.515 19.7935C129.672 19.399 129.915 19.0407 130.229 18.7424C130.543 18.444 130.921 18.2125 131.336 18.0632C131.752 17.9138 132.197 17.8501 132.641 17.8763H135.953V22.0763V22.0689ZM162.082 26.7736V6.27782H147.298V18.9671C147.298 21.5495 145.599 23.7015 143.227 23.7608C142.123 23.7608 140.44 23.093 140.44 21.5346V12.8822C140.44 8.64502 138.091 5.95132 133.032 5.95132C130.232 5.90121 127.525 6.90139 125.5 8.73407L127.849 11.4871C129.135 10.3556 130.795 9.68167 132.547 9.58001C134.035 9.58001 135.914 10.2033 135.914 12.1104V14.2921H132.242C126.988 14.2921 124.787 17.4533 124.787 20.7777C124.787 23.976 126.635 27.0927 131.936 27.0927C133.795 27.0204 135.566 26.3233 136.932 25.1262C137.773 25.8844 138.775 26.464 139.872 26.8261C140.968 27.1882 142.133 27.3246 143.29 27.2262C148.387 27.0778 151.66 24.4732 151.527 18.8335V9.78037H157.689V26.7736H162.082Z" fill="#787878"/>
<path d="M221.378 26.7885L213.352 15.9692L220.853 6.32236H215.748L210.134 14.344H207.378V6.27783H202.978V26.7885H207.292L207.331 17.8466H210.064L216.257 26.7885H221.378Z" fill="#787878"/>
<path d="M171.141 23.271H174.907C176.888 23.271 177.671 21.2155 177.671 19.8427C177.671 18.4699 176.841 16.7409 174.836 16.7409H171.133V23.271H171.141ZM166.662 26.8181V6.27783H171.141V13.2384H174.273C179.526 13.2384 182.314 16.2808 182.267 19.7759C182.22 23.271 179.621 26.8181 174.328 26.8181H166.615H166.662Z" fill="#787878"/>
<path d="M200.12 24.488L198.28 21.401C195.735 23.1004 194.208 23.6272 192.932 23.6272C191.138 23.6272 189.345 22.7516 189.345 20.9706V12.9786C189.345 11.1532 191.131 9.86198 193.19 9.86198C194.891 9.99065 196.476 10.7346 197.614 11.9397L199.963 9.14217C199.098 8.11069 197.989 7.28737 196.725 6.73932C195.46 6.19127 194.078 5.93397 192.689 5.98841C188.265 5.98841 184.859 8.56338 184.859 13.0009V20.6887C184.859 25.0446 188.414 27.0927 192.791 27.0927C195.495 27.0775 198.105 26.1486 200.151 24.4732" fill="#787878"/>
<path d="M241.556 26.7736V6.32233H237.163L228.269 20.2657V6.32233H223.923V26.7736H228.269H228.315L237.163 12.897V26.7736H241.556Z" fill="#787878"/>
<path d="M103.943 0H98.932L95.0564 12.1921C94.9859 12.4147 94.8918 12.6596 94.8371 12.9342C94.7822 13.2087 94.7275 13.3794 94.7038 13.5501C94.6804 13.7207 94.6571 13.8098 94.6571 13.8172C94.6571 13.8246 94.6571 13.7282 94.61 13.5649C94.5629 13.4016 94.5317 13.2013 94.477 12.9638C94.4272 12.7253 94.3537 12.4917 94.2575 12.2663L88.5338 0H83.4287L92.5899 19.0784L92.0105 20.4587C91.2745 21.9873 89.3482 23.6718 85.8873 23.8128L86.4354 27.1224C91.5092 27.2263 94.8526 25.0891 96.1525 21.5124L103.943 0Z" fill="#787878"/>
<path d="M308.056 37.1849C309.693 38.3406 311.68 38.9649 313.721 38.9649C315.763 38.9649 317.749 38.3406 319.386 37.1849L317.585 34.6765C316.473 35.4741 315.116 35.9057 313.721 35.9057C312.326 35.9057 310.969 35.4741 309.857 34.6765L308.056 37.1849ZM322.542 61.45V40.9991H318.149L309.285 54.9126V40.9991H304.932V61.45H309.285L318.134 47.5735V61.45H322.526H322.542Z" fill="#787878"/>
<path d="M300.359 40.999H295.967V61.45H300.359V40.999Z" fill="#787878"/>
<path d="M282.382 57.992H286.148C288.129 57.992 288.912 55.9367 288.912 54.5639C288.912 53.1911 288.082 51.4621 286.078 51.4621H282.374V57.992H282.382ZM277.903 61.539V40.999H282.382V47.9595H285.514C290.768 47.9595 293.555 51.0019 293.508 54.4969C293.461 57.992 290.862 61.539 285.568 61.539H277.856H277.903Z" fill="#787878"/>
<path d="M104.28 55.1128C104.277 55.5087 104.188 55.8993 104.019 56.2614C103.85 56.6231 103.605 56.9484 103.298 57.2169C102.992 57.4853 102.63 57.6914 102.236 57.822C101.842 57.953 101.424 58.0056 101.007 57.9774C100.507 58.0258 100.002 57.9478 99.5437 57.7508C99.0857 57.5539 98.6909 57.2455 98.3998 56.8568V46.2156V45.7778C98.7482 45.3787 99.1864 45.0583 99.6822 44.8399C100.178 44.6218 100.719 44.511 101.266 44.5162C101.672 44.5068 102.077 44.5783 102.453 44.7261C102.829 44.874 103.168 45.095 103.448 45.3745C103.729 45.6543 103.944 45.9865 104.08 46.3498C104.217 46.7135 104.272 47.0999 104.241 47.4844V55.1128H104.28ZM93.9603 45.6072V45.8594V56.8568C93.6692 57.2455 93.2744 57.5539 92.8164 57.7508C92.358 57.9478 91.8532 58.0258 91.3529 57.9774C90.9389 58.0014 90.5241 57.9455 90.1338 57.8129C89.7434 57.68 89.3857 57.4736 89.0823 57.2055C88.7789 56.9374 88.5366 56.6137 88.3696 56.2539C88.2026 55.8941 88.1147 55.5061 88.1112 55.1128V47.2917C88.0803 46.9062 88.1353 46.5192 88.272 46.1552C88.4091 45.7912 88.6253 45.4587 88.9064 45.1789C89.1878 44.899 89.5276 44.6784 89.9046 44.5311C90.2815 44.3836 90.687 44.3127 91.0945 44.3235C91.6429 44.3202 92.1855 44.4343 92.6813 44.6563C93.1775 44.8786 93.6143 45.2036 93.9603 45.6072ZM108.837 54.675V47.6105C108.837 43.1583 106.676 40.6354 102.033 40.6354C100.783 40.636 99.5537 40.9399 98.4623 41.5184V37.6597H93.9603V41.5184C92.869 40.9405 91.6398 40.6367 90.3898 40.6354C85.7465 40.6354 83.5854 43.1658 83.5854 47.6105V54.6676C83.5854 59.2757 86.5375 61.7766 90.742 61.7766C91.8766 61.7457 92.9841 61.4419 93.9603 60.8936V68.0472H98.439V60.8936C99.4162 61.4389 100.523 61.7402 101.657 61.7691C105.862 61.7766 108.837 59.2757 108.837 54.6676V54.675Z" fill="#787878"/>
<path d="M123.894 46.7945V49.3396H117.207V47.1137C117.207 45.2881 118.867 44.2491 120.794 44.2491C121.976 44.2491 123.925 44.9911 123.925 46.8241L123.894 46.7945ZM128.929 59.0977L127.042 55.8848C125.382 57.2735 123.258 58.0619 121.044 58.111C118.899 58.111 117.239 56.9904 117.239 54.7866V52.8421H128.412V47.8556C128.412 42.6612 124.943 40.6725 120.778 40.6725C116.002 40.6725 112.666 42.9949 112.666 48.0932V54.9127C112.666 59.4763 115.798 61.7692 120.645 61.7692C124.207 61.7767 126.353 60.686 128.897 59.0681L128.929 59.0977Z" fill="#787878"/>
<path d="M137.667 57.9995C138.771 56.8568 139.46 54.6751 139.406 52.4488V44.5237H145.568V57.9995H137.667ZM149.96 57.9995V41.0062H135.138V52.3081C135.138 54.8831 133.572 57.9404 131.168 57.9995H130.761V66.4664H135.029V61.5095H148.034V66.4739H152.419V57.9995H149.96Z" fill="#787878"/>
<path d="M273.362 61.45V40.999H268.961V48.9908H260.074V40.999H255.721V61.45H260.074V52.4933H268.961V61.45H273.362Z" fill="#787878"/>
<path d="M187.286 55.1499C187.286 56.9309 185.407 58.0145 183.7 58.0145C182.313 57.9813 180.96 57.5943 179.785 56.8939V45.8816C180.969 44.9557 182.447 44.4334 183.982 44.3976C184.407 44.3817 184.831 44.4464 185.229 44.5878C185.626 44.7291 185.991 44.9443 186.3 45.2205C186.609 45.4971 186.857 45.8293 187.029 46.1975C187.201 46.566 187.294 46.9632 187.302 47.3659V55.1499H187.286ZM191.812 54.7047V47.648C191.812 43.1955 189.306 40.6725 184.663 40.6725C182.909 40.6725 179.895 41.3404 178.665 42.29C178.325 41.5744 177.717 41.0033 176.958 40.6874L174.194 43.1064C175.244 43.7743 175.283 45.0801 175.283 45.659V68.0843H179.762V60.9382C181.205 61.5027 182.749 61.7998 184.311 61.8137C188.516 61.8137 191.836 59.3203 191.836 54.7122L191.812 54.7047Z" fill="#787878"/>
<path d="M206.094 56.7974C204.442 58.8234 199.524 59.0831 199.462 55.7587C199.432 55.3362 199.498 54.9124 199.655 54.5159C199.812 54.1194 200.056 53.7596 200.372 53.4599C200.688 53.1606 201.068 52.9286 201.486 52.78C201.905 52.6312 202.352 52.5688 202.797 52.5974H206.11V56.7974H206.094ZM232.254 61.5021V40.9988H217.44V53.6956C217.44 56.278 215.74 58.4298 213.368 58.4893C212.264 58.4893 210.581 57.8214 210.581 56.2631V47.6106C210.581 43.3736 208.232 40.68 203.173 40.68C200.374 40.6306 197.667 41.6306 195.641 43.4626L197.99 46.2157C199.276 45.084 200.936 44.4103 202.688 44.3086C204.176 44.3086 206.055 44.9319 206.055 46.839V49.0208H202.383C197.128 49.0208 194.928 52.1817 194.928 55.5061C194.928 58.7045 196.776 61.8212 202.077 61.8212C203.936 61.7491 205.707 61.0519 207.073 59.8546C207.914 60.6125 208.917 61.1917 210.013 61.5541C211.109 61.9161 212.274 62.0526 213.431 61.9548C218.528 61.7988 221.801 59.1942 221.668 53.562V44.5237H227.854V61.517H232.239L232.254 61.5021Z" fill="#787878"/>
<path d="M241.282 57.992H245.079C247.06 57.992 247.843 55.9367 247.843 54.5639C247.843 53.1911 247.013 51.4621 245.009 51.4621H241.305V57.992H241.282ZM236.803 61.539V40.999H241.282V47.9595H244.414C249.675 47.9595 252.455 51.0019 252.416 54.4969C252.377 57.992 249.77 61.539 244.477 61.539H236.764H236.803Z" fill="#787878"/>
<path d="M166.49 46.7945V49.3396H159.803V47.1137C159.803 45.2881 161.463 44.2491 163.389 44.2491C164.571 44.2491 166.521 44.9911 166.521 46.8241L166.49 46.7945ZM171.477 59.0681L169.59 55.8552C167.93 57.2436 165.806 58.032 163.593 58.0811C161.447 58.0811 159.787 56.9608 159.787 54.7567V52.8421H171V47.8556C171 42.6612 167.531 40.6725 163.373 40.6725C158.597 40.6725 155.261 42.9949 155.261 48.0932V54.9127C155.261 59.4763 158.393 61.7692 163.24 61.7692C166.779 61.7767 168.956 60.686 171.477 59.0681Z" fill="#787878"/>
<path d="M102.088 75.7348H97.2095L92.7937 91.6299C92.781 90.6432 92.6174 89.6633 92.3082 88.7212L88.5497 75.7277L83.5854 75.7719C83.5854 75.7719 89.372 93.0992 90.7265 96.1341C90.0609 98.8131 88.5184 100.587 85.2455 100.891L85.6681 104C90.6323 104 93.4514 101.462 94.4771 98.3382L102.088 75.7348Z" fill="#787878"/>
<path d="M122.532 96.186V75.7347H118.14V83.7193H109.245V75.7347H104.899V96.186H109.245V87.2293H118.14V96.186H122.532Z" fill="#787878"/>
<path d="M144.706 96.186V75.7347H140.314L131.419 89.6782V75.7347H127.073V96.186H131.419H131.466L140.314 82.3095V96.186H144.706Z" fill="#787878"/>
<path d="M153.735 92.6315H157.501C159.482 92.6315 160.265 91.1475 160.265 89.7598C160.29 89.4055 160.233 89.0503 160.097 88.7195C159.962 88.3883 159.752 88.0893 159.482 87.8429C159.212 87.5969 158.889 87.41 158.534 87.295C158.18 87.1799 157.803 87.14 157.43 87.1773H153.727V92.6243L153.735 92.6315ZM153.735 79.2746V83.6898H156.961C157.269 83.7193 157.581 83.6829 157.874 83.5832C158.166 83.4837 158.431 83.3235 158.649 83.1145C158.868 82.9052 159.034 82.6524 159.136 82.3745C159.238 82.0966 159.273 81.8005 159.239 81.508C159.255 81.223 159.21 80.938 159.106 80.6699C159.003 80.4017 158.843 80.1564 158.637 79.9484C158.43 79.7404 158.182 79.574 157.906 79.4596C157.63 79.3448 157.332 79.2844 157.031 79.2818H153.735V79.2746ZM149.256 96.1714V75.7347H156.961C162.254 75.7347 163.914 78.792 163.835 81.1297C163.85 81.9783 163.611 82.8136 163.145 83.5386C162.68 84.2634 162.007 84.8487 161.205 85.2257C162.281 85.5657 163.215 86.2215 163.872 87.0977C164.53 87.9742 164.876 89.0259 164.861 90.1014C164.861 93.0696 162.559 96.186 157.258 96.186H149.248L149.256 96.1714Z" fill="#787878"/>
<path d="M247.421 75.7347V79.2373H252.87V96.2305H253.152H257.255H257.537V79.2373H262.995V75.7347H247.421Z" fill="#787878"/>
<path d="M283.259 75.7347V79.2373H288.716L288.709 96.2305H288.998H293.101H293.383V79.2373H298.833V75.7347H283.259Z" fill="#787878"/>
<path d="M244.163 96.186V75.7347H239.771L230.876 89.6782V75.7347H226.53V96.186H230.876H230.923L239.771 82.3095V96.186H244.163Z" fill="#787878"/>
<path d="M199.971 89.8414C199.971 91.6224 198.092 92.706 196.385 92.706C194.997 92.6725 193.645 92.2854 192.47 91.5854V80.5656C193.654 79.6394 195.132 79.1168 196.667 79.0817C197.092 79.0657 197.515 79.1304 197.913 79.2718C198.312 79.4128 198.676 79.6283 198.985 79.9046C199.294 80.1811 199.542 80.5133 199.714 80.8815C199.886 81.2497 199.979 81.6472 199.987 82.0499V89.8713L199.971 89.8414ZM204.497 89.3962V82.369C204.497 77.9165 201.991 75.3936 197.348 75.3936C195.594 75.3936 192.58 76.0614 191.35 77.0114C191.012 76.2922 190.404 75.7182 189.643 75.401L186.879 77.82C187.928 78.4879 187.96 79.7941 187.96 80.3729V102.776H192.446V95.6297C193.89 96.1942 195.434 96.4916 196.996 96.5052C201.232 96.4682 204.497 94.0044 204.497 89.3962Z" fill="#787878"/>
<path d="M223.664 93.8412L221.824 90.7543C219.279 92.4537 217.753 92.9806 216.484 92.9806C214.691 92.9806 212.898 92.1047 212.898 90.324V82.369C212.898 80.5435 214.691 79.2522 216.75 79.2522C218.452 79.3816 220.035 80.1255 221.174 81.33L223.523 78.5324C222.658 77.5011 221.549 76.6776 220.285 76.1296C219.021 75.5817 217.638 75.3243 216.249 75.3789C211.825 75.3789 208.419 77.9535 208.419 82.3911V90.0715C208.419 94.4275 211.974 96.4756 216.359 96.4756C219.063 96.4603 221.673 95.5315 223.719 93.8561" fill="#787878"/>
<path d="M276.501 81.4785V84.0236H269.815V81.7977C269.815 79.9722 271.475 78.9331 273.401 78.9331C274.583 78.9331 276.533 79.6751 276.533 81.5081L276.501 81.4785ZM281.536 93.7817L279.61 90.5317C277.95 91.9201 275.826 92.7086 273.612 92.7577C271.467 92.7577 269.807 91.6374 269.807 89.4332V87.5635H281.019V82.5767C281.019 77.3822 277.551 75.3936 273.385 75.3936C268.609 75.3936 265.273 77.7163 265.273 82.8143V89.6263C265.273 94.1899 268.405 96.4828 273.252 96.4828C276.815 96.4682 278.96 95.3697 281.505 93.7522L281.536 93.7817Z" fill="#787878"/>
<path d="M179.308 81.4785V84.0236H172.621V81.7977C172.621 79.9722 174.281 78.9331 176.207 78.9331C177.389 78.9331 179.339 79.6751 179.339 81.5081L179.308 81.4785ZM184.342 93.7817L182.377 90.5317C180.717 91.9201 178.593 92.7086 176.379 92.7577C174.234 92.7577 172.574 91.6374 172.574 89.4332V87.5635H183.786V82.5767C183.786 77.3822 180.318 75.3936 176.16 75.3936C171.383 75.3936 168.048 77.7163 168.048 82.8143V89.6263C168.048 94.1899 171.18 96.4828 176.027 96.4828C179.582 96.4682 181.727 95.3697 184.272 93.7522L184.342 93.7817Z" fill="#787878"/>
</g>
<defs>
<clipPath id="clip0_240_15">
<rect width="323" height="104" fill="white"/>
</clipPath>
</defs>
</svg>
